<?xml version="1.0" encoding="utf-8"?>
<!-- Generator: Adobe Illustrator 24.0.1, SVG Export Plug-In . SVG Version: 6.00 Build 0)  -->
<svg version="1.1" id="Capa_1" xmlns="http://www.w3.org/2000/svg" xmlns:xlink="http://www.w3.org/1999/xlink" x="0px" y="0px"
	 viewBox="0 0 537.19 121.53" style="enable-background:new 0 0 537.19 121.53;" xml:space="preserve">
<style type="text/css">
	.st0{fill-rule:evenodd;clip-rule:evenodd;fill:#FFFFFF;}
	.st1{fill-rule:evenodd;clip-rule:evenodd;fill:#E34549;}
	.st2{clip-path:url(#SVGID_2_);fill-rule:evenodd;clip-rule:evenodd;fill:#FFFFFF;}
	.st3{clip-path:url(#SVGID_2_);fill-rule:evenodd;clip-rule:evenodd;fill:#C7302F;}
	.st4{clip-path:url(#SVGID_4_);fill-rule:evenodd;clip-rule:evenodd;fill:#C8D5DA;}
	.st5{clip-path:url(#SVGID_6_);fill-rule:evenodd;clip-rule:evenodd;fill:#9E1E1B;}
	.st6{clip-path:url(#SVGID_8_);fill-rule:evenodd;clip-rule:evenodd;fill:#B1C2C8;}
</style>
<g>
	<path class="st0" d="M49.72,58.32H21.93V44.26H49.2c5.83,0,9.44,2.19,9.44,7.28S54.51,58.32,49.72,58.32 M51.03,37.71H14.25v43.91
		h7.68V64.88h27.62c12.22,0,16.93-6.01,16.93-13.47C66.48,43.96,61.15,37.71,51.03,37.71 M80.84,37.71h9.66l20.83,37.35l38.31-30.72
		l-37.73-0.03l3.15-6.61h44.97v6.6l-38.31,30.7l40.03,0.05l-3.22,6.56h-51.98L85.72,44.01l-11.63,20.8h19.39l-3.42,6.34H70.55
		l-5.86,10.48h-8.4L80.84,37.71z"/>
	<path class="st0" d="M497.48,64.11c0,1.99,0.33,3.78,0.97,5.39c0.64,1.6,1.56,2.98,2.73,4.14c1.19,1.12,2.61,1.98,4.27,2.59
		c1.67,0.61,3.52,0.92,5.59,0.92c2.05,0,3.91-0.31,5.58-0.92c1.69-0.61,3.13-1.47,4.31-2.59c1.19-1.16,2.11-2.54,2.74-4.14
		c0.65-1.61,0.96-3.4,0.96-5.39c0-1.98-0.31-3.78-0.96-5.38c-0.63-1.63-1.55-3.02-2.74-4.14c-1.18-1.15-2.62-2.02-4.31-2.64
		c-1.66-0.64-3.52-0.96-5.58-0.96c-2.07,0-3.93,0.32-5.59,0.96c-1.65,0.62-3.08,1.49-4.27,2.64c-1.18,1.12-2.09,2.51-2.73,4.14
		C497.81,60.33,497.48,62.13,497.48,64.11 M504.69,64.11c0-1,0.11-1.97,0.31-2.93c0.21-0.96,0.54-1.81,1.02-2.54
		c0.51-0.74,1.17-1.33,1.98-1.78c0.81-0.48,1.82-0.72,3.05-0.72c1.21,0,2.22,0.24,3.03,0.72c0.86,0.45,1.51,1.04,1.99,1.78
		c0.51,0.73,0.86,1.58,1.06,2.54c0.21,0.96,0.3,1.93,0.3,2.93c0,1-0.09,1.98-0.3,2.94c-0.2,0.92-0.55,1.77-1.06,2.54
		c-0.48,0.73-1.13,1.33-1.99,1.77c-0.81,0.44-1.82,0.67-3.03,0.67c-1.23,0-2.23-0.23-3.05-0.67c-0.81-0.45-1.47-1.04-1.98-1.77
		c-0.47-0.77-0.81-1.62-1.02-2.54C504.8,66.08,504.69,65.11,504.69,64.11 M485.72,76.51h7.21V51.67h-7.21V76.51z M492.93,42.2h-7.21
		v5.62h7.21V42.2z M466.1,51.67v24.84h7.2v-11.2c0-1.12,0.12-2.16,0.36-3.12c0.24-0.96,0.62-1.79,1.17-2.5
		c0.56-0.73,1.31-1.31,2.23-1.72c0.92-0.42,2.03-0.62,3.35-0.62c0.44,0,0.89,0.03,1.37,0.09c0.47,0.03,0.88,0.08,1.21,0.14v-6.34
		c-0.57-0.16-1.1-0.24-1.57-0.24c-0.91,0-1.79,0.12-2.64,0.37c-0.84,0.26-1.64,0.63-2.39,1.12c-0.74,0.45-1.4,1.01-1.98,1.67
		c-0.57,0.65-1.02,1.35-1.37,2.12l-0.1-4.62H466.1z M453.62,64.35v2.55c0,0.39-0.04,0.9-0.14,1.53c-0.07,0.64-0.29,1.28-0.67,1.92
		c-0.37,0.62-0.94,1.14-1.73,1.59c-0.78,0.45-1.87,0.67-3.31,0.67c-0.56,0-1.12-0.04-1.67-0.14c-0.53-0.1-1.01-0.26-1.41-0.48
		c-0.42-0.26-0.73-0.59-0.97-1.01c-0.23-0.41-0.35-0.93-0.35-1.54c0-0.64,0.12-1.17,0.35-1.59c0.24-0.42,0.54-0.75,0.92-1
		c0.4-0.29,0.85-0.51,1.37-0.67c0.54-0.16,1.08-0.29,1.62-0.39c0.58-0.09,1.15-0.17,1.73-0.24c0.57-0.06,1.12-0.14,1.62-0.24
		c0.54-0.09,1.03-0.2,1.47-0.33C452.94,64.82,453.32,64.61,453.62,64.35 M436.98,59.31h7.2c0.14-1.34,0.62-2.3,1.42-2.88
		c0.82-0.58,1.93-0.87,3.35-0.87c0.64,0,1.24,0.05,1.78,0.14c0.58,0.06,1.06,0.22,1.47,0.48c0.44,0.23,0.77,0.57,1.02,1.02
		c0.26,0.42,0.39,0.98,0.39,1.73c0.03,0.71-0.18,1.24-0.65,1.64c-0.48,0.35-1.12,0.62-1.93,0.81c-0.82,0.19-1.75,0.33-2.8,0.43
		c-1.04,0.1-2.11,0.22-3.19,0.38c-1.08,0.16-2.16,0.39-3.26,0.68c-1.04,0.25-1.99,0.66-2.83,1.2c-0.81,0.55-1.48,1.29-2.02,2.22
		c-0.52,0.89-0.77,2.05-0.77,3.45c0,1.29,0.23,2.39,0.67,3.32c0.48,0.93,1.12,1.71,1.93,2.31c0.81,0.6,1.76,1.05,2.85,1.35
		c1.08,0.29,2.25,0.43,3.5,0.43c1.62,0,3.21-0.22,4.77-0.68c1.56-0.45,2.91-1.23,4.06-2.35c0.03,0.42,0.08,0.84,0.15,1.25
		c0.1,0.39,0.22,0.76,0.35,1.15h7.3c-0.33-0.52-0.57-1.27-0.7-2.31c-0.15-1.02-0.21-2.1-0.21-3.22V58.05c0-1.5-0.35-2.7-1.06-3.6
		c-0.72-0.93-1.63-1.64-2.75-2.16c-1.12-0.5-2.36-0.85-3.71-1c-1.35-0.2-2.68-0.29-4-0.29c-1.46,0-2.91,0.14-4.37,0.43
		c-1.42,0.26-2.71,0.7-3.86,1.34c-1.15,0.65-2.09,1.5-2.84,2.55C437.5,56.37,437.08,57.71,436.98,59.31 M407.51,51.67v24.84h7.2
		V63.49c0-2.54,0.44-4.34,1.31-5.44c0.89-1.11,2.31-1.68,4.27-1.68c1.73,0,2.92,0.52,3.6,1.54c0.68,0.99,1.01,2.52,1.01,4.57v14.03
		h7.21V61.23c0-1.54-0.15-2.93-0.46-4.18c-0.27-1.28-0.76-2.36-1.47-3.22c-0.71-0.89-1.69-1.59-2.95-2.07
		c-1.22-0.51-2.78-0.76-4.72-0.76c-1.52,0-3.01,0.33-4.46,1c-1.46,0.64-2.64,1.69-3.55,3.12l-0.16-3.45H407.51z M384.62,65.74h18.93
		c0.14-1.92-0.03-3.77-0.5-5.52c-0.47-1.76-1.25-3.33-2.33-4.71c-1.05-1.37-2.4-2.46-4.06-3.27c-1.67-0.82-3.6-1.24-5.84-1.24
		c-2,0-3.82,0.33-5.48,1c-1.62,0.67-3.03,1.61-4.22,2.78c-1.18,1.17-2.1,2.54-2.75,4.14c-0.64,1.6-0.95,3.33-0.95,5.18
		c0,1.92,0.3,3.69,0.91,5.29c0.65,1.6,1.55,2.98,2.69,4.13c1.15,1.15,2.56,2.05,4.22,2.69c1.65,0.61,3.52,0.92,5.58,0.92
		c2.98,0,5.51-0.65,7.61-1.93c2.1-1.28,3.66-3.41,4.67-6.39h-6.34c-0.24,0.77-0.88,1.51-1.93,2.21c-1.05,0.67-2.3,1-3.76,1
		c-2.02,0-3.58-0.49-4.66-1.48C385.33,69.56,384.72,67.95,384.62,65.74 M396.36,61.42h-11.73c0.04-0.48,0.15-1.03,0.31-1.64
		c0.2-0.6,0.53-1.19,0.97-1.73c0.47-0.54,1.08-1,1.83-1.34c0.78-0.39,1.74-0.58,2.89-0.58c1.76,0,3.06,0.45,3.9,1.35
		C395.4,58.38,396.01,59.69,396.36,61.42 M370.28,51.67v-7.45h-7.2v7.45h-4.37v4.57h4.37v14.66c0,1.25,0.22,2.25,0.67,3.02
		c0.44,0.76,1.02,1.35,1.77,1.77c0.77,0.42,1.65,0.69,2.63,0.82c1.02,0.16,2.09,0.24,3.2,0.24c0.71,0,1.44-0.01,2.17-0.04
		c0.75-0.04,1.42-0.1,2.03-0.2v-5.29c-0.34,0.06-0.69,0.11-1.06,0.15c-0.37,0.03-0.77,0.05-1.17,0.05c-1.22,0-2.03-0.19-2.43-0.58
		c-0.42-0.39-0.62-1.15-0.62-2.31v-12.3h5.28v-4.57H370.28z M331.37,51.67v24.84h7.2V63.49c0-2.54,0.45-4.34,1.32-5.44
		c0.88-1.11,2.3-1.68,4.27-1.68c1.73,0,2.93,0.52,3.61,1.54c0.67,0.99,1.02,2.52,1.02,4.57v14.03h7.2V61.23
		c0-1.54-0.16-2.93-0.46-4.18c-0.27-1.28-0.76-2.36-1.48-3.22c-0.71-0.89-1.68-1.59-2.95-2.07c-1.21-0.51-2.78-0.76-4.71-0.76
		c-1.52,0-3.01,0.33-4.47,1c-1.46,0.64-2.64,1.69-3.55,3.12l-0.15-3.45H331.37z M308.49,65.74h18.94c0.12-1.92-0.04-3.77-0.52-5.52
		c-0.48-1.76-1.25-3.33-2.33-4.71c-1.06-1.37-2.4-2.46-4.06-3.27c-1.65-0.82-3.62-1.24-5.83-1.24c-2,0-3.83,0.33-5.48,1
		c-1.63,0.67-3.04,1.61-4.22,2.78c-1.19,1.17-2.09,2.54-2.73,4.14c-0.65,1.6-0.97,3.33-0.97,5.18c0,1.92,0.3,3.69,0.91,5.29
		c0.65,1.6,1.54,2.98,2.7,4.13c1.14,1.15,2.55,2.05,4.21,2.69c1.66,0.61,3.52,0.92,5.58,0.92c2.98,0,5.51-0.65,7.61-1.93
		c2.1-1.28,3.65-3.41,4.67-6.39h-6.35c-0.24,0.77-0.88,1.51-1.93,2.21c-1.05,0.67-2.31,1-3.76,1c-2.02,0-3.59-0.49-4.67-1.48
		C309.18,69.56,308.6,67.95,308.49,65.74 M320.21,61.42h-11.72c0.02-0.48,0.14-1.03,0.3-1.64c0.21-0.6,0.52-1.19,0.96-1.73
		c0.48-0.54,1.08-1,1.83-1.34c0.77-0.39,1.75-0.58,2.89-0.58c1.76,0,3.06,0.45,3.9,1.35C319.27,58.38,319.88,59.69,320.21,61.42
		 M291.6,60.41h7.06c-0.1-1.6-0.51-2.98-1.21-4.13c-0.72-1.19-1.65-2.16-2.8-2.93c-1.11-0.8-2.4-1.39-3.85-1.78
		c-1.42-0.38-2.91-0.57-4.47-0.57c-2.13,0-4.03,0.33-5.68,1c-1.66,0.67-3.06,1.62-4.21,2.84c-1.15,1.18-2.03,2.61-2.64,4.27
		c-0.58,1.63-0.86,3.41-0.86,5.33c0,1.86,0.32,3.57,0.97,5.15c0.63,1.53,1.53,2.86,2.68,3.99c1.15,1.12,2.55,2,4.17,2.64
		c1.65,0.61,3.46,0.92,5.42,0.92c3.48,0,6.35-0.87,8.57-2.6c2.24-1.73,3.59-4.24,4.07-7.54h-6.96c-0.23,1.54-0.82,2.77-1.77,3.7
		c-0.92,0.89-2.24,1.34-3.95,1.34c-1.12,0-2.07-0.23-2.85-0.71c-0.77-0.48-1.41-1.09-1.87-1.83c-0.45-0.77-0.77-1.62-0.97-2.55
		c-0.21-0.93-0.31-1.83-0.31-2.74c0-0.92,0.1-1.86,0.31-2.78c0.2-0.96,0.54-1.83,1.02-2.6c0.5-0.79,1.15-1.44,1.92-1.91
		c0.79-0.51,1.76-0.77,2.9-0.77C289.35,56.14,291.13,57.56,291.6,60.41"/>
	<polygon class="st1" points="168.7,34.89 219.69,11.38 267.02,34.61 259.83,77.53 216.23,112.67 180.16,76.49 	"/>
	<g>
		<defs>
			<polygon id="SVGID_1_" points="168.7,34.89 180.17,76.49 216.24,112.67 259.83,77.53 267.02,34.61 219.69,11.38 			"/>
		</defs>
		<clipPath id="SVGID_2_">
			<use xlink:href="#SVGID_1_"  style="overflow:visible;"/>
		</clipPath>
		<path class="st2" d="M210,47.34c-1.43,0.67-2.87,1.32-4.29,1.91l0.4-7.97c1.42-0.35,2.84-0.74,4.27-1.14L210,47.34z M179.5,68.61
			c-1.39-0.45-2.77-1.05-4.12-1.85l0.49-9.72c1.36,0.65,2.74,1.15,4.13,1.52L179.5,68.61z M213.81,55.09
			c-1.45,1.14-2.91,2.26-4.37,3.33l0.36-7.21c1.44-0.81,2.89-1.65,4.34-2.51L213.81,55.09z M244.15,37.33
			c-1.44,0.66-2.88,1.49-4.33,2.45l0.08-1.8c1.45-0.79,2.88-1.46,4.31-2L244.15,37.33z M252.66,35.47c-1.4-0.08-2.81,0.04-4.23,0.37
			l0.06-1.05c1.42-0.25,2.82-0.33,4.23-0.24L252.66,35.47z M203.78,87.3c-1.49,1.78-2.98,3.44-4.45,4.98l0.43-8.65
			c1.48-1.33,2.95-2.78,4.43-4.3L203.78,87.3z M230.81,51.74c-1.49,1.77-2.98,3.65-4.49,5.59l0.19-3.87
			c1.49-1.67,2.96-3.29,4.45-4.82L230.81,51.74z M264.75,45.8c-1.3-2-2.62-3.62-3.96-4.91l0.07-1.35c1.35,1.14,2.67,2.56,3.99,4.32
			L264.75,45.8z M184.44,53.8c-1.39-0.11-2.79-0.32-4.17-0.64l0.5-10.04c1.39,0.25,2.79,0.43,4.19,0.55L184.44,53.8z M192.88,53.3
			c-1.42,0.25-2.83,0.44-4.24,0.52l0.51-10.02c1.41-0.01,2.81-0.09,4.22-0.21L192.88,53.3z M187.87,69.23
			c-1.41,0.2-2.81,0.26-4.2,0.15l0.51-10.13c1.39,0.1,2.8,0.08,4.2-0.04L187.87,69.23z M205.08,61.53
			c-1.46,0.98-2.89,1.91-4.35,2.75l0.44-8.67c1.44-0.63,2.87-1.32,4.31-2.06L205.08,61.53z M182.79,86.53
			c-1.39-0.08-2.77-0.38-4.16-0.93l0.52-10.04c1.37,0.48,2.77,0.75,4.16,0.83L182.79,86.53z M200,78.95
			c-1.48,1.21-2.92,2.31-4.38,3.27l0.47-9.26c1.44-0.78,2.9-1.69,4.34-2.68L200,78.95z M208.84,70.63c-1.49,1.52-2.96,3.01-4.43,4.4
			l0.39-7.98c1.47-1.16,2.93-2.37,4.4-3.63L208.84,70.63z M235.84,35.32c-1.42,0.51-2.85,1.08-4.29,1.68l0.16-3.09
			c1.42-0.37,2.83-0.69,4.25-0.99L235.84,35.32z M252.8,32.46c-1.39-0.1-2.8-0.11-4.2-0.02l0.04-1.06c1.4-0.01,2.81,0.02,4.2,0.14
			L252.8,32.46z M222.58,48.19c-1.46,1.14-2.92,2.29-4.37,3.45l0.27-5.54c1.44-0.87,2.89-1.74,4.34-2.6L222.58,48.19z M231.31,41.75
			c-1.45,0.98-2.9,2.02-4.36,3.1l0.2-3.86c1.44-0.81,2.88-1.59,4.31-2.33L231.31,41.75z M239.97,36.73
			c-1.44,0.66-2.87,1.43-4.31,2.27l0.11-2.39c1.44-0.63,2.87-1.2,4.3-1.68L239.97,36.73z M248.52,34.06
			c-1.42,0.2-2.83,0.53-4.25,0.98l0.07-1.34c1.42-0.33,2.83-0.57,4.24-0.69L248.52,34.06z M256.89,34.67
			c-1.37-0.43-2.77-0.68-4.15-0.78l0.04-0.93c1.39,0.1,2.79,0.33,4.18,0.69L256.89,34.67z M265.06,39.54
			c-1.34-1.22-2.7-2.22-4.05-3.02l0.07-1.35c1.36,0.65,2.72,1.45,4.08,2.42L265.06,39.54z M226.63,51.38
			c-1.49,1.53-2.96,3.12-4.45,4.73l0.24-4.68c1.47-1.32,2.93-2.64,4.4-3.9L226.63,51.38z M235.46,43.06
			c-1.47,1.21-2.94,2.52-4.41,3.92l0.15-3.08c1.48-1.16,2.92-2.24,4.37-3.24L235.46,43.06z M260.89,38.8
			c-1.34-1.05-2.7-1.84-4.08-2.39l0.04-1.02c1.39,0.48,2.75,1.16,4.11,2.06L260.89,38.8z M268.82,48.6
			c-1.29-2.24-2.6-4.16-3.91-5.79l0.09-1.94c1.33,1.39,2.66,3.02,3.95,4.92L268.82,48.6z M239.68,42.58
			c-1.47,1.24-2.93,2.64-4.41,4.18l0.12-2.4c1.46-1.33,2.93-2.52,4.38-3.59L239.68,42.58z M256.73,38c-1.36-0.65-2.75-1-4.14-1.08
			l0.05-0.94c1.4,0.08,2.78,0.4,4.16,0.98L256.73,38z"/>
		<path class="st3" d="M165.86,32.97l66.37,51.71l-3.97,34.36l-26.26,0.36c0,0-35.93-35.86-35.5-37.29
			C166.96,80.67,165.86,32.97,165.86,32.97"/>
	</g>
	<g>
		<defs>
			<polygon id="SVGID_3_" points="180.17,76.49 216.24,112.67 230.32,101.32 232.24,84.68 168.79,35.26 			"/>
		</defs>
		<clipPath id="SVGID_4_">
			<use xlink:href="#SVGID_3_"  style="overflow:visible;"/>
		</clipPath>
		<path class="st4" d="M210,47.34c-1.43,0.67-2.87,1.32-4.29,1.91l0.4-7.97c1.42-0.35,2.84-0.74,4.27-1.14L210,47.34z M179.5,68.61
			c-1.39-0.45-2.77-1.05-4.12-1.85l0.49-9.72c1.36,0.65,2.74,1.15,4.13,1.52L179.5,68.61z M213.81,55.09
			c-1.45,1.14-2.91,2.26-4.37,3.33l0.36-7.21c1.44-0.81,2.89-1.65,4.34-2.51L213.81,55.09z M244.15,37.33
			c-1.44,0.66-2.88,1.49-4.33,2.45l0.08-1.8c1.45-0.79,2.88-1.46,4.31-2L244.15,37.33z M252.66,35.47c-1.4-0.08-2.81,0.04-4.23,0.37
			l0.06-1.05c1.42-0.25,2.82-0.33,4.23-0.24L252.66,35.47z M203.78,87.3c-1.49,1.78-2.98,3.44-4.45,4.98l0.43-8.65
			c1.48-1.33,2.95-2.78,4.43-4.3L203.78,87.3z M230.81,51.74c-1.49,1.77-2.98,3.65-4.49,5.59l0.19-3.87
			c1.49-1.67,2.96-3.29,4.45-4.82L230.81,51.74z M264.75,45.8c-1.3-2-2.62-3.62-3.96-4.91l0.07-1.35c1.35,1.14,2.67,2.56,3.99,4.32
			L264.75,45.8z M184.44,53.8c-1.39-0.11-2.79-0.32-4.17-0.64l0.5-10.04c1.39,0.25,2.79,0.43,4.19,0.55L184.44,53.8z M192.88,53.3
			c-1.42,0.25-2.83,0.44-4.24,0.52l0.51-10.02c1.41-0.01,2.81-0.09,4.22-0.21L192.88,53.3z M187.87,69.23
			c-1.41,0.2-2.81,0.26-4.2,0.15l0.51-10.13c1.39,0.1,2.8,0.08,4.2-0.04L187.87,69.23z M205.08,61.53
			c-1.46,0.98-2.89,1.91-4.35,2.75l0.44-8.67c1.44-0.63,2.87-1.32,4.31-2.06L205.08,61.53z M182.79,86.53
			c-1.39-0.08-2.77-0.38-4.16-0.93l0.52-10.04c1.37,0.48,2.77,0.75,4.16,0.83L182.79,86.53z M200,78.95
			c-1.48,1.21-2.92,2.31-4.38,3.27l0.47-9.26c1.44-0.78,2.9-1.69,4.34-2.68L200,78.95z M208.84,70.63c-1.49,1.52-2.96,3.01-4.43,4.4
			l0.39-7.98c1.47-1.16,2.93-2.37,4.4-3.63L208.84,70.63z M235.84,35.32c-1.42,0.51-2.85,1.08-4.29,1.68l0.16-3.09
			c1.42-0.37,2.83-0.69,4.25-0.99L235.84,35.32z M252.8,32.46c-1.39-0.1-2.8-0.11-4.2-0.02l0.04-1.06c1.4-0.01,2.81,0.02,4.2,0.14
			L252.8,32.46z M222.58,48.19c-1.46,1.14-2.92,2.29-4.37,3.45l0.27-5.54c1.44-0.87,2.89-1.74,4.34-2.6L222.58,48.19z M231.31,41.75
			c-1.45,0.98-2.9,2.02-4.36,3.1l0.2-3.86c1.44-0.81,2.88-1.59,4.31-2.33L231.31,41.75z M239.97,36.73
			c-1.44,0.66-2.87,1.43-4.31,2.27l0.11-2.39c1.44-0.63,2.87-1.2,4.3-1.68L239.97,36.73z M248.52,34.06
			c-1.42,0.2-2.83,0.53-4.25,0.98l0.07-1.34c1.42-0.33,2.83-0.57,4.24-0.69L248.52,34.06z M256.89,34.67
			c-1.37-0.43-2.77-0.68-4.15-0.78l0.04-0.93c1.39,0.1,2.79,0.33,4.18,0.69L256.89,34.67z M265.06,39.54
			c-1.34-1.22-2.7-2.22-4.05-3.02l0.07-1.35c1.36,0.65,2.72,1.45,4.08,2.42L265.06,39.54z M226.63,51.38
			c-1.49,1.53-2.96,3.12-4.45,4.73l0.24-4.68c1.47-1.32,2.93-2.64,4.4-3.9L226.63,51.38z M235.46,43.06
			c-1.47,1.21-2.94,2.52-4.41,3.92l0.15-3.08c1.48-1.16,2.92-2.24,4.37-3.24L235.46,43.06z M260.89,38.8
			c-1.34-1.05-2.7-1.84-4.08-2.39l0.04-1.02c1.39,0.48,2.75,1.16,4.11,2.06L260.89,38.8z M268.82,48.6
			c-1.29-2.24-2.6-4.16-3.91-5.79l0.09-1.94c1.33,1.39,2.66,3.02,3.95,4.92L268.82,48.6z M239.68,42.58
			c-1.47,1.24-2.93,2.64-4.41,4.18l0.12-2.4c1.46-1.33,2.93-2.52,4.38-3.59L239.68,42.58z M256.73,38c-1.36-0.65-2.75-1-4.14-1.08
			l0.05-0.94c1.4,0.08,2.78,0.4,4.16,0.98L256.73,38z"/>
	</g>
	<g>
		<defs>
			<polygon id="SVGID_5_" points="168.7,34.89 180.17,76.49 216.24,112.67 259.83,77.53 267.02,34.61 219.69,11.38 			"/>
		</defs>
		<clipPath id="SVGID_6_">
			<use xlink:href="#SVGID_5_"  style="overflow:visible;"/>
		</clipPath>
		<polygon class="st5" points="270.68,32.74 268.42,33.33 213.79,70.26 216.49,117.09 260.83,98.74 275.42,49.21 		"/>
	</g>
	<g>
		<defs>
			<polygon id="SVGID_7_" points="213.79,70.26 216.24,112.67 216.24,112.67 259.83,77.53 267.02,34.61 266.73,34.47 			"/>
		</defs>
		<clipPath id="SVGID_8_">
			<use xlink:href="#SVGID_7_"  style="overflow:visible;"/>
		</clipPath>
		<path class="st6" d="M210,47.34c-1.43,0.67-2.87,1.32-4.29,1.91l0.4-7.97c1.42-0.35,2.84-0.74,4.27-1.14L210,47.34z M179.5,68.61
			c-1.39-0.45-2.77-1.05-4.12-1.85l0.49-9.72c1.36,0.65,2.74,1.15,4.13,1.52L179.5,68.61z M213.81,55.09
			c-1.45,1.14-2.91,2.26-4.37,3.33l0.36-7.21c1.44-0.81,2.89-1.65,4.34-2.51L213.81,55.09z M244.15,37.33
			c-1.44,0.66-2.88,1.49-4.33,2.45l0.08-1.8c1.45-0.79,2.88-1.46,4.31-2L244.15,37.33z M252.66,35.47c-1.4-0.08-2.81,0.04-4.23,0.37
			l0.06-1.05c1.42-0.25,2.82-0.33,4.23-0.24L252.66,35.47z M203.78,87.3c-1.49,1.78-2.98,3.44-4.45,4.98l0.43-8.65
			c1.48-1.33,2.95-2.78,4.43-4.3L203.78,87.3z M230.81,51.74c-1.49,1.77-2.98,3.65-4.49,5.59l0.19-3.87
			c1.49-1.67,2.96-3.29,4.45-4.82L230.81,51.74z M264.75,45.8c-1.3-2-2.62-3.62-3.96-4.91l0.07-1.35c1.35,1.14,2.67,2.56,3.99,4.32
			L264.75,45.8z M184.44,53.8c-1.39-0.11-2.79-0.32-4.17-0.64l0.5-10.04c1.39,0.25,2.79,0.43,4.19,0.55L184.44,53.8z M192.88,53.3
			c-1.42,0.25-2.83,0.44-4.24,0.52l0.51-10.02c1.41-0.01,2.81-0.09,4.22-0.21L192.88,53.3z M187.87,69.23
			c-1.41,0.2-2.81,0.26-4.2,0.15l0.51-10.13c1.39,0.1,2.8,0.08,4.2-0.04L187.87,69.23z M205.08,61.53
			c-1.46,0.98-2.89,1.91-4.35,2.75l0.44-8.67c1.44-0.63,2.87-1.32,4.31-2.06L205.08,61.53z M182.79,86.53
			c-1.39-0.08-2.77-0.38-4.16-0.93l0.52-10.04c1.37,0.48,2.77,0.75,4.16,0.83L182.79,86.53z M200,78.95
			c-1.48,1.21-2.92,2.31-4.38,3.27l0.47-9.26c1.44-0.78,2.9-1.69,4.34-2.68L200,78.95z M208.84,70.63c-1.49,1.52-2.96,3.01-4.43,4.4
			l0.39-7.98c1.47-1.16,2.93-2.37,4.4-3.63L208.84,70.63z M235.84,35.32c-1.42,0.51-2.85,1.08-4.29,1.68l0.16-3.09
			c1.42-0.37,2.83-0.69,4.25-0.99L235.84,35.32z M252.8,32.46c-1.39-0.1-2.8-0.11-4.2-0.02l0.04-1.06c1.4-0.01,2.81,0.02,4.2,0.14
			L252.8,32.46z M222.58,48.19c-1.46,1.14-2.92,2.29-4.37,3.45l0.27-5.54c1.44-0.87,2.89-1.74,4.34-2.6L222.58,48.19z M231.31,41.75
			c-1.45,0.98-2.9,2.02-4.36,3.1l0.2-3.86c1.44-0.81,2.88-1.59,4.31-2.33L231.31,41.75z M239.97,36.73
			c-1.44,0.66-2.87,1.43-4.31,2.27l0.11-2.39c1.44-0.63,2.87-1.2,4.3-1.68L239.97,36.73z M248.52,34.06
			c-1.42,0.2-2.83,0.53-4.25,0.98l0.07-1.34c1.42-0.33,2.83-0.57,4.24-0.69L248.52,34.06z M256.89,34.67
			c-1.37-0.43-2.77-0.68-4.15-0.78l0.04-0.93c1.39,0.1,2.79,0.33,4.18,0.69L256.89,34.67z M265.06,39.54
			c-1.34-1.22-2.7-2.22-4.05-3.02l0.07-1.35c1.36,0.65,2.72,1.45,4.08,2.42L265.06,39.54z M226.63,51.38
			c-1.49,1.53-2.96,3.12-4.45,4.73l0.24-4.68c1.47-1.32,2.93-2.64,4.4-3.9L226.63,51.38z M235.46,43.06
			c-1.47,1.21-2.94,2.52-4.41,3.92l0.15-3.08c1.48-1.16,2.92-2.24,4.37-3.24L235.46,43.06z M260.89,38.8
			c-1.34-1.05-2.7-1.84-4.08-2.39l0.04-1.02c1.39,0.48,2.75,1.16,4.11,2.06L260.89,38.8z M268.82,48.6
			c-1.29-2.24-2.6-4.16-3.91-5.79l0.09-1.94c1.33,1.39,2.66,3.02,3.95,4.92L268.82,48.6z M239.68,42.58
			c-1.47,1.24-2.93,2.64-4.41,4.18l0.12-2.4c1.46-1.33,2.93-2.52,4.38-3.59L239.68,42.58z M256.73,38c-1.36-0.65-2.75-1-4.14-1.08
			l0.05-0.94c1.4,0.08,2.78,0.4,4.16,0.98L256.73,38z"/>
	</g>
</g>
</svg>
