<?xml version="1.0" encoding="utf-8"?>
<!-- Generator: Adobe Illustrator 25.2.1, SVG Export Plug-In . SVG Version: 6.00 Build 0)  -->
<svg version="1.1" id="Layer_1" xmlns="http://www.w3.org/2000/svg" xmlns:xlink="http://www.w3.org/1999/xlink" x="0px" y="0px"
	 width="96px" height="96px" viewBox="0 0 96 96" style="enable-background:new 0 0 96 96;" xml:space="preserve">
<style type="text/css">
	.st0{fill:#EADED6;}
	.st1{fill:none;}
</style>
<rect class="st1" width="96" height="96"/>
<g>
	<path class="st0" d="M48,17.2c0.7,0,1.2-0.5,1.2-1.2c0-0.7,0-1.3,0-2c0-0.7,0-1.4,0-2.2c0-0.7-0.5-1.2-1.2-1.2
		c-0.6,0-1.2,0.5-1.2,1.2c0,1.4,0,2.8,0,4.2C46.8,16.8,47.3,17.2,48,17.2z"/>
	<path class="st0" d="M49.2,33.5c0-0.7-0.5-1.2-1.1-1.2c-0.7,0-1.2,0.5-1.2,1.2c0,1.4,0,2.7,0,4.1c0,0.7,0.5,1.2,1.1,1.2
		c0.7,0,1.2-0.5,1.2-1.2c0-0.7,0-1.4,0-2.1C49.2,34.8,49.2,34.2,49.2,33.5z"/>
	<path class="st0" d="M39.1,15.8c0,0,0,0.1,0,0.1c0.1,0.8,0.5,1.3,1.3,1.3c0.7,0,1.1-0.5,1.1-1.3c0-1.3,0-2.6,0-3.9
		c0-0.8-0.5-1.4-1.2-1.4c-0.7,0-1.2,0.5-1.3,1.4c0,0.6,0,1.3,0,1.9C39.1,14.6,39.1,15.2,39.1,15.8z"/>
	<path class="st0" d="M54.4,15.9c0,0.8,0.5,1.3,1.2,1.3c0.7,0,1.2-0.4,1.2-1.2c0-1.4,0-2.7,0-4.1c0-0.8-0.5-1.3-1.2-1.3
		c-0.7,0-1.2,0.5-1.2,1.4c0,0.6,0,1.3,0,1.9C54.4,14.6,54.4,15.2,54.4,15.9z"/>
	<path class="st0" d="M49.2,22.7c0-0.8-0.5-1.3-1.2-1.3c-0.7,0-1.2,0.5-1.2,1.3c0,1.3,0,2.7,0,4c0,0.8,0.5,1.3,1.2,1.3
		c0.7,0,1.2-0.5,1.2-1.3c0-0.7,0-1.3,0-2C49.2,24.1,49.2,23.4,49.2,22.7z"/>
	<path class="st0" d="M41.6,33.5c0-0.7-0.5-1.2-1.1-1.3c-0.7,0-1.2,0.4-1.2,1.2c0,1.4,0,2.8,0,4.2c0,0.8,0.5,1.2,1.2,1.2
		c0.7,0,1.1-0.5,1.2-1.3c0-0.6,0-1.3,0-1.9C41.6,34.9,41.6,34.2,41.6,33.5z"/>
	<path class="st0" d="M54.4,37.5c0,0.8,0.5,1.3,1.1,1.3c0.7,0,1.2-0.4,1.2-1.2c0-1.4,0-2.8,0-4.2c0-0.8-0.5-1.2-1.2-1.2
		c-0.7,0-1.1,0.5-1.2,1.3c0,0.6,0,1.3,0,1.9C54.4,36.2,54.4,36.9,54.4,37.5z"/>
	<path class="st0" d="M40.4,28c0.7,0,1.2-0.5,1.2-1.3c0-0.7,0-1.3,0-2c0-0.6,0-1.3,0-1.9c0-0.8-0.5-1.3-1.2-1.3
		c-0.7,0-1.2,0.4-1.2,1.2c0,1.4,0,2.7,0,4.1C39.2,27.6,39.7,28,40.4,28z"/>
	<path class="st0" d="M54.4,26.7c0,0.8,0.5,1.3,1.1,1.3c0.7,0,1.2-0.4,1.2-1.2c0-1.4,0-2.8,0-4.2c0-0.8-0.5-1.2-1.2-1.2
		c-0.7,0-1.1,0.5-1.2,1.3c0,0.6,0,1.3,0,1.9C54.4,25.4,54.4,26,54.4,26.7z"/>
	<path class="st0" d="M31.5,16c0,0.7,0.5,1.2,1.2,1.2c0.7,0,1.2-0.5,1.2-1.2c0-1.4,0-2.8,0-4.2c0-0.7-0.5-1.2-1.2-1.2
		c-0.7,0-1.2,0.5-1.2,1.3c0,0.7,0,1.3,0,2C31.5,14.6,31.5,15.3,31.5,16z"/>
	<path class="st0" d="M63.3,17.2c0.7,0,1.1-0.5,1.2-1.2c0-0.7,0-1.3,0-2c0-0.7,0-1.4,0-2.1c0-0.7-0.5-1.2-1.1-1.2
		c-0.6,0-1.2,0.5-1.2,1.2c0,1.4,0,2.8,0,4.3C62.1,16.8,62.7,17.2,63.3,17.2z"/>
	<path class="st0" d="M64.5,22.7c0-0.7-0.5-1.2-1.2-1.2c-0.7,0-1.2,0.5-1.2,1.2c0,1.4,0,2.8,0,4.2c0,0.7,0.6,1.2,1.2,1.2
		c0.7,0,1.1-0.5,1.2-1.2c0-0.7,0-1.4,0-2.1c0-0.6,0-1.3,0-1.9C64.5,22.8,64.5,22.7,64.5,22.7z"/>
	<path class="st0" d="M31.5,26.8c0,0.8,0.5,1.3,1.2,1.3c0.7,0,1.2-0.5,1.2-1.3c0-1.3,0-2.7,0-4c0-0.8-0.5-1.3-1.2-1.3
		c-0.7,0-1.1,0.5-1.1,1.3c0,0.7,0,1.3,0,2C31.5,25.4,31.5,26.1,31.5,26.8z"/>
	<path class="st0" d="M32.7,32.3c-0.7,0-1.2,0.5-1.2,1.3c0,0.7,0,1.3,0,2c0,0.7,0,1.4,0,2.1c0,0.7,0.5,1.2,1.2,1.2
		c0.7,0,1.2-0.4,1.2-1.2c0-1.4,0-2.8,0-4.2C33.9,32.7,33.3,32.3,32.7,32.3z"/>
	<path class="st0" d="M64.5,33.5c0-0.7-0.5-1.2-1.2-1.2c-0.7,0-1.2,0.5-1.2,1.2c0,1.4,0,2.8,0,4.2c0,0.7,0.5,1.2,1.2,1.2
		c0.7,0,1.1-0.5,1.2-1.2c0-0.7,0-1.4,0-2.1C64.5,34.9,64.5,34.2,64.5,33.5z"/>
	<path class="st0" d="M94.7,93.6c-0.6,0-1.3,0-1.9,0h-1.1h-3.1c-0.1,0-0.2,0-0.3,0c-4.7,0-9.3,0-14,0c-0.7,0-0.8-0.2-0.8-0.9
		c0-30.3,0-60.7,0-91c0-1.3-0.3-1.7-1.7-1.7C55.9,0,40.1,0,24.2,0c-1.3,0-1.6,0.4-1.6,1.7c0,23.1,0,46.2,0,69.3c0,7.3,0,14.6,0,21.9
		c0,0.4,0.1,0.7-0.5,0.7c-4.8,0-9.7,0-14.5,0c-0.1,0-0.1,0-0.2,0h-3H3H2.5c-0.4,0-0.7,0-1.1,0c-0.9,0-1.4,0.5-1.4,1.2
		C0,95.5,0.5,96,1.4,96c31.1,0,62.1,0,93.2,0c0.8,0,1.4-0.5,1.4-1.2C96,94.1,95.5,93.6,94.7,93.6z M25.7,2.4c14.9,0,29.7,0,44.6,0
		c0.6,0,0.8,0.2,0.8,0.8c0,14.3,0,28.6,0,43c0,0.6-0.1,0.7-0.7,0.7c-7.5,0-14.9,0-22.4,0c-7.4,0-14.8,0-22.3,0
		c-0.6,0-0.7-0.2-0.7-0.7c0-14.3,0-28.6,0-43C25,2.5,25.1,2.4,25.7,2.4z M25,49.8c0-0.5,0.1-0.6,0.6-0.6c15,0,29.9,0,44.9,0
		c0.5,0,0.6,0.1,0.6,0.6c0,2.2,0,4.4,0,6.6c0,0.5-0.2,0.6-0.6,0.6c-7.5,0-15,0-22.5,0c-7.4,0-14.9,0-22.3,0c-0.5,0-0.7-0.1-0.7-0.7
		C25,54.1,25,52,25,49.8z M25,59.9c0-0.5,0.1-0.6,0.6-0.6c15,0,29.9,0,44.9,0c0.4,0,0.6,0.1,0.6,0.6c0,2.2,0,4.4,0,6.6
		c0,0.5-0.1,0.6-0.6,0.6c-7.5,0-15,0-22.5,0c-7.4,0-14.8,0-22.2,0c-0.6,0-0.7-0.1-0.7-0.7C25,64.3,25,62.1,25,59.9z M46.2,93.6
		c-1.4,0-2.7,0-4.1,0c-0.4,0-0.6-0.1-0.6-0.5c0-4.2,0-8.5,0-12.7c0-0.4,0.1-0.5,0.6-0.5c1.4,0,2.8,0,4.2,0c0.5,0,0.6,0.2,0.6,0.6
		c0,2.1,0,4.2,0,6.3c0,2.1,0,4.1,0,6.2C46.9,93.5,46.7,93.6,46.2,93.6z M54,93.6c-1.4,0-2.8,0-4.3,0c-0.5,0-0.5-0.1-0.5-0.6
		c0-2.1,0-4.2,0-6.3c0-2.1,0-4.2,0-6.3c0-0.4,0-0.6,0.5-0.6c1.4,0,2.9,0,4.3,0c0.4,0,0.5,0.1,0.5,0.5c0,4.2,0,8.5,0,12.7
		C54.6,93.5,54.5,93.6,54,93.6z M70.3,93.6c-4.2,0-8.4,0-12.6,0c-0.7,0-0.8-0.2-0.8-0.8c0-4.6,0-9.1,0-13.7c0-1.3-0.4-1.7-1.6-1.7
		c-4.8,0-9.7,0-14.5,0c-1.3,0-1.7,0.4-1.7,1.7c0,4.6,0,9.2,0,13.7c0,0.5-0.1,0.8-0.7,0.8c-4.3,0-8.6,0-12.8,0
		c-0.6,0-0.7-0.2-0.7-0.7c0-7.6,0-15.2,0-22.7c0-0.6,0.1-0.7,0.7-0.7c7.5,0,14.9,0,22.4,0c7.4,0,14.8,0,22.3,0
		c0.6,0,0.7,0.2,0.7,0.8c0,7.5,0,15.1,0,22.6C71,93.5,70.9,93.6,70.3,93.6z"/>
</g>
</svg>
