<?xml version="1.0" encoding="utf-8"?>
<!-- Generator: Adobe Illustrator 25.2.1, SVG Export Plug-In . SVG Version: 6.00 Build 0)  -->
<svg version="1.1" id="Capa_1" xmlns="http://www.w3.org/2000/svg" xmlns:xlink="http://www.w3.org/1999/xlink" x="0px" y="0px"
	 width="96px" height="96px" viewBox="0 0 96 96" style="enable-background:new 0 0 96 96;" xml:space="preserve">
<style type="text/css">
	.st0{fill:#2D5067;stroke:#2D5067;stroke-miterlimit:10;}
	.st1{fill:none;}
</style>
<g>
	<path class="st0" d="M75.7,41.2c-0.2-0.2-0.5-0.3-0.7-0.3H21c-0.6,0-1.1,0.5-1.1,1.1v3.8c0,1.6,0.2,3.3,0.5,5l0,0v0.1
		c1.7,9.3,7.9,17.1,16.7,20.8L38,72l-6.3,19.7c-0.1,0.3-0.1,0.6,0.1,0.8c0.1,0.3,0.3,0.4,0.6,0.5c0.1,0,0.2,0.1,0.3,0.1
		c0.5,0,0.9-0.3,1-0.7l3-9.4h10.2v9.1c0,0.6,0.5,1.1,1.1,1.1s1.1-0.5,1.1-1.1V83h10.2l3,9.4c0.1,0.4,0.5,0.7,1,0.7
		c0.1,0,0.2,0,0.3-0.1c0.3-0.1,0.5-0.3,0.6-0.5c0.1-0.3,0.2-0.5,0.1-0.8L58,72l0.8-0.3c8.8-3.7,15-11.5,16.7-20.8v-0.1
		c0.3-1.7,0.5-3.3,0.5-5V42C76,41.7,75.9,41.4,75.7,41.2z M46.9,80.7h-9.5l2.6-8.1l0.9,0.2c1.7,0.4,3.4,0.7,5.2,0.8l0.9,0.1v7H46.9z
		 M58.6,80.7h-9.5v-6.9l0.9-0.1c1.8-0.1,3.5-0.4,5.2-0.8l0.9-0.2L58.6,80.7z M73.9,45.8c0,0.9-0.1,1.9-0.2,2.8l-0.1,0.9h-8.4
		c-0.6,0-1.1,0.5-1.1,1.1s0.5,1.1,1.1,1.1h8L72.8,53c-3,10.9-13.3,18.7-24.8,18.7S26.2,64,23.1,52.9l-0.4-1.3h36.8
		c0.6,0,1.1-0.5,1.1-1.1s-0.5-1.1-1.1-1.1H22.3l-0.1-0.9c-0.1-1-0.2-1.9-0.2-2.8V43h51.8v2.8H73.9z"/>
	<path class="st0" d="M43.7,26.2c0.2,0.1,0.4,0.2,0.6,0.2c0.4,0,0.7-0.2,0.9-0.5c0.2-0.2,0.2-0.5,0.2-0.8c-0.1-0.3-0.2-0.5-0.5-0.7
		c-3.4-2.3-5.4-6.2-5.1-10.3c0-0.3,0.1-0.7,0.1-1c0.1-0.6-0.3-1.1-0.9-1.2c-0.1,0-0.1,0-0.2,0c-0.5,0-1,0.4-1,0.9
		c-0.1,0.4-0.1,0.8-0.2,1.2C37.3,18.8,39.6,23.5,43.7,26.2z"/>
	<path class="st0" d="M40.6,8.5c0.2,0.2,0.5,0.2,0.6,0.2c0.3,0,0.6-0.1,0.8-0.4c1.6-2.1,3.5-3.2,3.8-3.3c0.3-0.1,0.4-0.4,0.5-0.6
		c0.1-0.3,0.1-0.6-0.1-0.8C46.1,3.2,45.7,3,45.3,3c-0.2,0-0.3,0-0.5,0.1c-0.3,0.1-2.5,1.4-4.4,3.9c-0.2,0.2-0.2,0.5-0.2,0.8
		C40.2,8,40.4,8.3,40.6,8.5z"/>
	<path class="st0" d="M56,29.3c-0.2-0.1-0.4-0.2-0.6-0.2c-0.4,0-0.7,0.2-0.9,0.5c-0.9,1.4-2,2.6-3.4,3.5c-0.2,0.2-0.4,0.4-0.5,0.7
		s0,0.6,0.2,0.8c0.2,0.3,0.5,0.5,0.9,0.5c0.2,0,0.4-0.1,0.6-0.2c1.6-1.1,3-2.5,4-4.2c0.1-0.2,0.2-0.5,0.1-0.8
		C56.4,29.7,56.3,29.5,56,29.3z"/>
	<path class="st0" d="M50.2,13.7c0.2,0.1,5.6,3,6.1,9.2c0,0.7,0,1.3,0,2c-0.1,0.6,0.4,1.1,1,1.2h0.1c0.5,0,1-0.4,1.1-1
		c0.1-0.8,0.1-1.6,0-2.3c-0.6-7.3-6.9-10.7-7.2-10.9c-0.2-0.1-0.3-0.1-0.5-0.1c-0.4,0-0.8,0.2-0.9,0.6
		C49.5,12.8,49.7,13.5,50.2,13.7z"/>
</g>
<rect y="0" class="st1" width="96" height="96"/>
</svg>
