<?xml version="1.0" encoding="UTF-8"?>
<svg id="Capa_2" data-name="Capa 2" xmlns="http://www.w3.org/2000/svg" viewBox="0 0 85.18 85.18">
  <defs>
    <style>
      .cls-1 {
        fill: #e7573f;
      }
    </style>
  </defs>
  <g id="Capa_1-2" data-name="Capa 1">
    <g id="Layer_2" data-name="Layer 2">
      <path class="cls-1" d="M76.05,0H9.13C4.09.02.02,4.09,0,9.13v66.93c.02,5.03,4.09,9.11,9.13,9.13h66.93c5.03-.02,9.11-4.09,9.13-9.13V9.13c-.02-5.03-4.09-9.11-9.13-9.13ZM73.01,69.97c0,1.68-1.36,3.04-3.04,3.04h-12.17c-1.68,0-3.04-1.36-3.04-3.04s1.36-3.04,3.04-3.04h4.81L18.25,22.57v4.81c0,1.68-1.36,3.04-3.04,3.04s-3.04-1.36-3.04-3.04v-12.17c0-1.68,1.36-3.04,3.04-3.04h12.17c1.68,0,3.04,1.36,3.04,3.04s-1.36,3.04-3.04,3.04h-4.81l44.35,44.35v-4.81c0-1.68,1.36-3.04,3.04-3.04s3.04,1.36,3.04,3.04v12.17Z"/>
    </g>
  </g>
</svg>